<svg width="21" height="22" viewBox="0 0 21 22" fill="none" xmlns="http://www.w3.org/2000/svg">
<path d="M10.9998 4.00005C11.001 3.60008 10.9222 3.20391 10.768 2.83485C10.6139 2.46579 10.3874 2.13128 10.1021 1.851C9.81676 1.57072 9.47825 1.35032 9.10649 1.20278C8.73472 1.05524 8.33721 0.983527 7.93733 0.991862C7.53744 1.0002 7.14326 1.08841 6.77797 1.25132C6.41268 1.41422 6.08365 1.64853 5.81023 1.94045C5.53682 2.23238 5.32454 2.57604 5.18588 2.9512C5.04722 3.32637 4.98499 3.72548 5.00283 4.12505C4.41503 4.27619 3.86933 4.5591 3.40706 4.95236C2.94479 5.34562 2.57807 5.83892 2.33467 6.3949C2.09128 6.95087 1.97759 7.55494 2.00222 8.16136C2.02685 8.76778 2.18915 9.36065 2.47683 9.89505C1.97101 10.306 1.57326 10.8343 1.31817 11.434C1.06308 12.0337 0.958388 12.6866 1.01319 13.336C1.068 13.9854 1.28065 14.6116 1.63264 15.1601C1.98462 15.7085 2.46529 16.1627 3.03283 16.4831C2.96275 17.0253 3.00457 17.5761 3.15572 18.1016C3.30686 18.627 3.56413 19.1159 3.91161 19.538C4.2591 19.9601 4.68944 20.3065 5.17605 20.5558C5.66266 20.8051 6.19521 20.952 6.74081 20.9874C7.28641 21.0228 7.83347 20.946 8.34822 20.7617C8.86296 20.5774 9.33446 20.2895 9.73359 19.9158C10.1327 19.5421 10.451 19.0906 10.6688 18.5891C10.8866 18.0876 10.9992 17.5468 10.9998 17V4.00005Z" stroke="white" stroke-width="2" stroke-linecap="round" stroke-linejoin="round"/>
<path d="M8.00005 12C8.83961 11.7047 9.57273 11.167 10.1067 10.455C10.6407 9.74301 10.9516 8.88867 11.0001 8M5.00305 4.125C5.02283 4.60873 5.15938 5.0805 5.40105 5.5M2.47705 9.896C2.65999 9.74701 2.85575 9.61449 3.06205 9.5M5.00005 17C4.31088 17.0003 3.63332 16.8226 3.03305 16.484M11.0001 12H15.0001M11.0001 17H17.0001C17.5305 17 18.0392 17.2107 18.4143 17.5858C18.7893 17.9609 19.0001 18.4696 19.0001 19V20M11.0001 7H19.0001M15.0001 7V4C15.0001 3.46957 15.2108 2.96086 15.5858 2.58579C15.9609 2.21071 16.4696 2 17.0001 2" stroke="white" stroke-width="2" stroke-linecap="round" stroke-linejoin="round"/>
<path d="M15 12.5C15.2761 12.5 15.5 12.2761 15.5 12C15.5 11.7239 15.2761 11.5 15 11.5C14.7239 11.5 14.5 11.7239 14.5 12C14.5 12.2761 14.7239 12.5 15 12.5Z" stroke="white" stroke-width="2" stroke-linecap="round" stroke-linejoin="round"/>
<path d="M17 2.5C17.2761 2.5 17.5 2.27614 17.5 2C17.5 1.72386 17.2761 1.5 17 1.5C16.7239 1.5 16.5 1.72386 16.5 2C16.5 2.27614 16.7239 2.5 17 2.5Z" stroke="white" stroke-width="2" stroke-linecap="round" stroke-linejoin="round"/>
<path d="M19 20.5C19.2761 20.5 19.5 20.2761 19.5 20C19.5 19.7239 19.2761 19.5 19 19.5C18.7239 19.5 18.5 19.7239 18.5 20C18.5 20.2761 18.7239 20.5 19 20.5Z" stroke="white" stroke-width="2" stroke-linecap="round" stroke-linejoin="round"/>
<path d="M19 7.5C19.2761 7.5 19.5 7.27614 19.5 7C19.5 6.72386 19.2761 6.5 19 6.5C18.7239 6.5 18.5 6.72386 18.5 7C18.5 7.27614 18.7239 7.5 19 7.5Z" stroke="white" stroke-width="2" stroke-linecap="round" stroke-linejoin="round"/>
</svg>
