<svg width="22" height="16" viewBox="0 0 22 16" fill="none" xmlns="http://www.w3.org/2000/svg">
<path d="M5 7H9M7 5V9M14 8H14.01M17 6H17.01M16.32 1H5.68C4.69028 1.00023 3.73579 1.36738 3.00103 2.03046C2.26628 2.69355 1.80345 3.60549 1.702 4.59L1.685 4.742C1.604 5.416 1 10.456 1 12C1 12.7956 1.31607 13.5587 1.87868 14.1213C2.44129 14.6839 3.20435 15 4 15C5 15 5.5 14.5 6 14L7.414 12.586C7.78899 12.2109 8.29761 12.0001 8.828 12H13.172C13.7024 12.0001 14.211 12.2109 14.586 12.586L16 14C16.5 14.5 17 15 18 15C18.7956 15 19.5587 14.6839 20.1213 14.1213C20.6839 13.5587 21 12.7956 21 12C21 10.455 20.396 5.416 20.315 4.742C20.3083 4.692 20.3027 4.64167 20.298 4.591C20.1968 3.60631 19.7341 2.69413 18.9993 2.03083C18.2645 1.36754 17.3099 1.00026 16.32 1Z" stroke="white" stroke-width="2" stroke-linecap="round" stroke-linejoin="round"/>
</svg>
