<svg width="21" height="21" viewBox="0 0 21 21" fill="none" xmlns="http://www.w3.org/2000/svg">
<path d="M12.6999 5.30022C12.5166 5.48715 12.414 5.73847 12.414 6.00022C12.414 6.26198 12.5166 6.5133 12.6999 6.70022L14.2999 8.30022C14.4868 8.48345 14.7381 8.58608 14.9999 8.58608C15.2616 8.58608 15.5129 8.48345 15.6999 8.30022L19.4699 4.53022C19.9727 5.64141 20.1249 6.87946 19.9063 8.07937C19.6877 9.27928 19.1086 10.3841 18.2461 11.2465C17.3837 12.1089 16.2789 12.6881 15.079 12.9067C13.8791 13.1253 12.641 12.9731 11.5299 12.4702L4.61986 19.3802C4.22203 19.778 3.68246 20.0015 3.11986 20.0015C2.55725 20.0015 2.01768 19.778 1.61986 19.3802C1.22203 18.9824 0.998535 18.4428 0.998535 17.8802C0.998535 17.3176 1.22203 16.778 1.61986 16.3802L8.52986 9.47022C8.02702 8.35904 7.87477 7.12099 8.0934 5.92108C8.31202 4.72117 8.89114 3.61638 9.75358 2.75395C10.616 1.89151 11.7208 1.31239 12.9207 1.09377C14.1206 0.87514 15.3587 1.02739 16.4699 1.53022L12.7099 5.29022L12.6999 5.30022Z" stroke="white" stroke-width="2" stroke-linecap="round" stroke-linejoin="round"/>
</svg>
