<svg width="22" height="22" viewBox="0 0 22 22" fill="none" xmlns="http://www.w3.org/2000/svg">
<path d="M20.5398 13.9998H15.9998C15.4694 13.9998 14.9607 14.2106 14.5856 14.5856C14.2105 14.9607 13.9998 15.4694 13.9998 15.9998V20.5398M5.9998 2.33984V3.99984C5.9998 4.79549 6.31588 5.55855 6.87848 6.12116C7.44109 6.68377 8.20416 6.99984 8.9998 6.99984C9.53024 6.99984 10.0389 7.21056 10.414 7.58563C10.7891 7.9607 10.9998 8.46941 10.9998 8.99984C10.9998 10.0998 11.8998 10.9998 12.9998 10.9998C13.5302 10.9998 14.0389 10.7891 14.414 10.4141C14.7891 10.039 14.9998 9.53028 14.9998 8.99984C14.9998 7.89984 15.8998 6.99984 16.9998 6.99984H20.1698M9.9998 20.9498V16.9998C9.9998 16.4694 9.78909 15.9607 9.41402 15.5856C9.03894 15.2106 8.53024 14.9998 7.9998 14.9998C7.46937 14.9998 6.96066 14.7891 6.58559 14.4141C6.21052 14.039 5.9998 13.5303 5.9998 12.9998V11.9998C5.9998 11.4694 5.78909 10.9607 5.41402 10.5856C5.03895 10.2106 4.53024 9.99984 3.9998 9.99984H1.0498" stroke="white" stroke-width="2" stroke-linecap="round" stroke-linejoin="round"/>
<path d="M11 21C16.5228 21 21 16.5228 21 11C21 5.47715 16.5228 1 11 1C5.47715 1 1 5.47715 1 11C1 16.5228 5.47715 21 11 21Z" stroke="white" stroke-width="2" stroke-linecap="round" stroke-linejoin="round"/>
</svg>
